<svg width="24" height="24" viewBox="0 0 24 24" fill="none" xmlns="http://www.w3.org/2000/svg">
<g id="copy-paste 1">
<path id="Vector" fill-rule="evenodd" clip-rule="evenodd" d="M4.51739 8.63784C4.51739 7.85109 5.12582 7.2419 6.04214 7.2419C6.95845 7.2419 8.83842 7.22081 8.83842 7.22081C8.83842 7.22081 8.80973 6.5655 8.80973 5.73206C8.80973 4.89881 9.55542 4.32956 10.4494 4.32956C11.3436 4.32956 15.7731 4.36715 16.2077 4.36715C16.6424 4.36715 16.9949 4.52831 17.4822 4.89872C17.9693 5.26931 18.7058 5.88872 19.0705 6.3014C19.4352 6.71409 19.5891 6.95503 19.5891 7.29553C19.5891 7.63612 19.5891 14.5008 19.5835 15.2962C19.5779 16.0916 18.845 16.6796 17.9772 16.6912C17.1093 16.7029 15.2458 16.7029 15.2458 16.7029C15.2458 16.7029 15.2894 17.2912 15.2894 18.1232C15.2894 18.9552 14.5295 19.6055 13.666 19.6284C12.8025 19.6514 6.92123 19.5825 6.08311 19.6055C5.24498 19.6284 4.4917 18.9685 4.4917 18.1597C4.4917 17.3508 4.51739 9.4245 4.51739 8.63784ZM6.0862 9.00778L5.9782 17.7127C5.97755 17.7619 5.98667 17.8107 6.00503 17.8563C6.02339 17.9019 6.05061 17.9434 6.08513 17.9783C6.11965 18.0133 6.16077 18.0411 6.20611 18.0601C6.25145 18.0791 6.30011 18.0889 6.34926 18.0889L13.2786 18.1095C13.3274 18.1101 13.3759 18.1008 13.4211 18.0822C13.4662 18.0636 13.5072 18.036 13.5414 18.0012C13.5756 17.9663 13.6025 17.9249 13.6203 17.8795C13.6381 17.834 13.6466 17.7854 13.6452 17.7366L13.6247 16.9029C13.6243 16.8783 13.619 16.8539 13.6091 16.8313C13.5992 16.8088 13.5849 16.7884 13.5671 16.7713C13.5492 16.7543 13.5282 16.741 13.5052 16.7321C13.4821 16.7233 13.4576 16.7191 13.4329 16.7198C13.4329 16.7198 11.383 16.7798 10.4548 16.7473C9.52645 16.7147 8.89176 16.1092 8.89148 15.2927C8.8912 14.4762 8.89176 8.81062 8.89176 8.81062C8.89181 8.78596 8.88697 8.76153 8.87752 8.73876C8.86806 8.71598 8.85418 8.6953 8.83668 8.67793C8.81918 8.66055 8.79841 8.64681 8.77557 8.63752C8.75273 8.62823 8.72827 8.62355 8.70361 8.62378L6.4657 8.63147C6.36582 8.63216 6.27017 8.67194 6.19925 8.74227C6.12832 8.8126 6.08774 8.9079 6.0862 9.00778ZM16.0713 5.70234C15.9151 5.5664 15.7886 5.62359 15.7886 5.83097V7.44862C15.7886 7.55231 15.8724 7.63678 15.9758 7.63734L17.9322 7.64681C18.1388 7.64784 18.1798 7.53843 18.0237 7.4025L16.0713 5.70234ZM10.6708 5.78175C10.6461 5.78152 10.6216 5.78617 10.5987 5.79542C10.5758 5.80467 10.555 5.81834 10.5374 5.83566C10.5198 5.85297 10.5058 5.87358 10.4962 5.89631C10.4866 5.91904 10.4816 5.94344 10.4814 5.96812L10.4227 14.9954C10.4223 15.0323 10.4293 15.0688 10.4432 15.1029C10.4571 15.1371 10.4776 15.1681 10.5036 15.1942C10.5295 15.2204 10.5604 15.2411 10.5945 15.2552C10.6285 15.2693 10.665 15.2765 10.7019 15.2764L17.7519 15.2589C17.8021 15.2587 17.8503 15.2388 17.8861 15.2036C17.9219 15.1684 17.9425 15.1205 17.9435 15.0703L18.0624 9.21834C18.0631 9.19384 18.0588 9.16945 18.0498 9.14662C18.0409 9.1238 18.0275 9.103 18.0103 9.08548C17.9932 9.06795 17.9727 9.05405 17.9501 9.0446C17.9274 9.03515 17.9032 9.03034 17.8786 9.03047C17.8786 9.03047 15.425 9.0344 14.9927 9.0344C14.5604 9.0344 14.2863 8.82609 14.2863 8.42672C14.2863 8.02734 14.2781 5.9925 14.2781 5.9925C14.2777 5.94248 14.2577 5.89462 14.2224 5.85923C14.187 5.82383 14.1392 5.80375 14.0892 5.80331L10.6707 5.78175H10.6708Z" fill="black"/>
</g>
</svg>
