<svg width="60" height="60" viewBox="0 0 60 60" fill="none" xmlns="http://www.w3.org/2000/svg">
<g clip-path="url(#clip0_2617_4237)">
<path d="M12.0772 46.4958L12.0772 46.4958L15.6322 29.688C15.6322 29.688 15.6322 29.688 15.6322 29.688C15.8265 28.7694 15.2393 27.8673 14.3208 27.673C13.4022 27.4786 12.5001 28.0659 12.3058 28.9844L12.3058 28.9844L8.75077 45.7922C8.75077 45.7922 8.75076 45.7922 8.75076 45.7922C8.55644 46.7108 9.14367 47.6129 10.0622 47.8072C10.9808 48.0015 11.8829 47.4143 12.0772 46.4958ZM44.5599 29.6936L48.1797 46.514C48.3773 47.4319 49.2815 48.0159 50.1994 47.8183C51.1171 47.6208 51.7012 46.7166 51.5036 45.7987L47.8838 28.9783C47.6863 28.0605 46.7821 27.4765 45.8642 27.6741C44.9465 27.8716 44.3624 28.7758 44.5599 29.6936Z" fill="#2B59C3" stroke="#2B59C3"/>
<path d="M4.70762 22.6696L29.1753 12.6521C29.1753 12.6521 29.1753 12.6521 29.1754 12.6521C29.4032 12.5588 29.7788 12.4987 30.1927 12.4996C30.6067 12.5005 30.9819 12.5622 31.2089 12.6564L31.209 12.6564L55.38 22.6696L31.2097 32.6825C31.2096 32.6825 31.2096 32.6826 31.2096 32.6826C30.982 32.7768 30.6065 32.8385 30.1926 32.8393C29.7787 32.8402 29.4033 32.78 29.1761 32.6869L29.1759 32.6868L4.70762 22.6696ZM32.5106 35.8238L32.5107 35.8238L58.8098 24.929C59.9002 24.4776 60.5451 23.6207 60.5451 22.6696C60.545 21.7186 59.9001 20.8617 58.8097 20.4102C58.8096 20.4102 58.8096 20.4102 58.8096 20.4101L32.5108 9.51556C31.8329 9.23444 31.0067 9.10135 30.2002 9.09963C29.3937 9.0979 28.5668 9.22744 27.8873 9.50554L27.8873 9.50556L1.24299 20.4142C1.24297 20.4142 1.24295 20.4142 1.24294 20.4142C0.148788 20.862 -0.500036 21.7175 -0.500126 22.6691C-0.500215 23.6206 0.148379 24.4764 1.2422 24.9248L1.24242 24.9249L27.8869 35.833C27.887 35.833 27.8871 35.8331 27.8872 35.8331C28.5662 36.1114 29.3929 36.241 30.1993 36.2394C31.0058 36.2377 31.8322 36.1047 32.5106 35.8238ZM48.9805 44.6907C43.3149 48.0186 36.8592 49.7989 30.1387 49.7989C23.41 49.7989 16.9467 48.0143 11.2763 44.6786C10.467 44.2026 9.42512 44.4727 8.94908 45.2819C8.47303 46.0912 8.74314 47.1331 9.55238 47.6091C15.7425 51.2505 22.8003 53.1989 30.1387 53.1989C37.4681 53.1989 44.5177 51.2553 50.7026 47.6223C51.5121 47.1468 51.7829 46.105 51.3074 45.2954C50.8318 44.4859 49.7901 44.2151 48.9805 44.6907Z" fill="#2B59C3" stroke="#2B59C3"/>
<path d="M57.6515 22.4441V39.8015C57.6515 40.4643 58.1887 41.0015 58.8515 41.0015C59.5143 41.0015 60.0515 40.4643 60.0515 39.8015V22.4441C60.0515 21.7814 59.5143 21.2441 58.8515 21.2441C58.1887 21.2441 57.6515 21.7814 57.6515 22.4441Z" fill="#2B59C3"/>
</g>
<defs>
<clipPath id="clip0_2617_4237">
<rect width="60" height="60" fill="white"/>
</clipPath>
</defs>
</svg>
