<svg width="168" height="24" viewBox="0 0 168 24" fill="none" xmlns="http://www.w3.org/2000/svg">
<path d="M41.3525 9.3877H48.1983V10.9293H43.1038V14.5H47.7434V16.0416H43.1038V20.0672H48.1983V21.6098H41.3525V9.3877Z" fill="#263369"/>
<path d="M56.4156 11.2256C55.6977 10.8893 54.9143 10.7157 54.1215 10.7174C53.1415 10.7174 51.9856 11.0674 51.9856 12.345C51.9856 14.6916 57.2393 14.1487 57.2393 18.1792C57.2393 20.7888 55.225 21.8211 52.7737 21.8211C51.9176 21.7841 51.0727 21.6126 50.2699 21.3129L50.445 19.6842C51.2497 20.0306 52.1094 20.2315 52.9843 20.2775C53.2732 20.3064 53.565 20.2774 53.8426 20.1923C54.1202 20.1073 54.3781 19.9678 54.6013 19.7821C54.8245 19.5964 55.0085 19.3681 55.1425 19.1106C55.2766 18.853 55.3581 18.5714 55.3823 18.282C55.3823 15.5509 50.1295 16.3034 50.1295 12.5042C50.1295 10.3327 51.8462 9.17676 54.0513 9.17676C54.9375 9.18017 55.8173 9.32813 56.6559 9.61482L56.4156 11.2256Z" fill="#263369"/>
<path d="M64.6616 21.8201C63.8538 21.8545 63.048 21.7146 62.299 21.4101C61.5499 21.1055 60.8752 20.6434 60.3206 20.055C59.2573 18.7814 58.7072 17.157 58.778 15.4994C58.7164 13.8527 59.2686 12.2419 60.3275 10.9794C60.8772 10.3842 61.5492 9.91508 62.2973 9.60409C63.0454 9.2931 63.852 9.14764 64.6616 9.17769C65.4711 9.14766 66.2775 9.29313 67.0254 9.60412C67.7734 9.91511 68.4452 10.3843 68.9947 10.9794C70.054 12.2418 70.6066 13.8526 70.5452 15.4994C70.6142 17.1546 70.0642 18.7762 69.0026 20.0481C68.4486 20.6377 67.7742 21.1011 67.0251 21.4069C66.2761 21.7127 65.47 21.8536 64.6616 21.8201ZM64.6319 10.7173C64.0508 10.7013 63.4743 10.826 62.9516 11.0806C62.4289 11.3352 61.9755 11.7123 61.6298 12.1798C60.9519 13.1516 60.6029 14.3149 60.634 15.4994C60.5992 16.6732 60.9337 17.8284 61.5903 18.8021C61.9431 19.2799 62.4074 19.6643 62.9427 19.9218C63.478 20.1792 64.0681 20.302 64.6616 20.2795C65.255 20.3019 65.8449 20.179 66.38 19.9215C66.9151 19.6641 67.3792 19.2798 67.732 18.8021C68.3886 17.8284 68.723 16.6732 68.6882 15.4994C68.6882 13.1192 67.4521 10.7183 64.6903 10.7183L64.6319 10.7173Z" fill="#263369"/>
<path d="M81.8458 16.5606C81.8458 19.9919 80.1123 21.8312 77.0993 21.8312C74.0863 21.8312 72.3528 19.9929 72.3528 16.5606V9.39941H74.1031V16.3322C74.1031 18.6797 74.8388 20.2876 77.0983 20.2876C79.3578 20.2876 80.0925 18.6778 80.0925 16.3322V9.39941H81.8458V16.5606Z" fill="#263369"/>
<path d="M85.9337 21.6128H84.1824V9.38867H87.1776C89.6419 9.38867 91.9241 9.78915 91.9241 12.6983C91.9137 13.3895 91.652 14.0531 91.188 14.5654C90.7239 15.0777 90.0893 15.4035 89.4026 15.4819V15.5195C89.9543 15.7331 90.2104 15.9971 90.5892 16.7457L92.9011 21.6128H90.9066L89.0337 17.3726C88.4908 16.186 87.9242 16.186 86.9848 16.186H85.9337V21.6157V21.6128ZM85.9337 10.9332V14.6424H87.4229C88.1089 14.6775 88.7889 14.4978 89.3679 14.1282C89.5895 13.9707 89.769 13.7612 89.8908 13.5181C90.0125 13.275 90.0727 13.0057 90.0661 12.7339C90.0661 11.5879 89.1761 10.9313 87.6147 10.9313L85.9337 10.9332Z" fill="#263369"/>
<path d="M99.7132 21.8201C98.9054 21.8545 98.0996 21.7146 97.3506 21.4101C96.6016 21.1055 95.9268 20.6434 95.3722 20.055C94.3089 18.7814 93.7589 17.157 93.8296 15.4994C93.7682 13.8526 94.3208 12.2417 95.3801 10.9794C95.9297 10.3843 96.6015 9.9152 97.3495 9.60421C98.0974 9.29322 98.9038 9.14772 99.7132 9.17769C100.523 9.14764 101.329 9.2931 102.078 9.60409C102.826 9.91508 103.498 10.3842 104.047 10.9794C105.106 12.2418 105.659 13.8527 105.597 15.4994C105.668 17.157 105.118 18.7813 104.054 20.055C103.5 20.6434 102.825 21.1055 102.076 21.4101C101.327 21.7146 100.521 21.8545 99.7132 21.8201ZM99.6836 10.7173C99.1024 10.7013 98.5259 10.8259 98.0032 11.0805C97.4805 11.3351 97.0271 11.7123 96.6814 12.1798C96.0039 13.1518 95.6553 14.315 95.6867 15.4994C95.6867 17.7045 96.7408 20.2805 99.7132 20.2805C102.686 20.2805 103.741 17.7095 103.741 15.4994C103.741 13.1192 102.505 10.7183 99.7419 10.7183L99.6836 10.7173Z" fill="#263369"/>
<path d="M35.3384 6.34929H30.0145V4.80273H42.6272V6.34929H37.3319V21.6131H35.3384V6.34929Z" fill="#263369"/>
<path d="M123.554 21.5938H125.334V9.16895H123.554V21.5938Z" fill="#263369"/>
<path d="M129.602 21.5948H127.822V9.16895H130.867C133.372 9.16895 135.69 9.57635 135.69 12.531C135.68 13.2342 135.414 13.9096 134.943 14.431C134.471 14.9524 133.825 15.2841 133.126 15.3641V15.3987C133.687 15.6152 133.948 15.8832 134.338 16.6436L136.686 21.5879H134.658L132.754 17.2864C132.201 16.076 131.624 16.076 130.67 16.076H129.602V21.5938V21.5948ZM129.602 10.7353V14.5087H131.115C131.813 14.544 132.504 14.3612 133.093 13.9856C133.318 13.8256 133.501 13.6127 133.624 13.3656C133.748 13.1185 133.809 12.8449 133.803 12.5686C133.803 11.4027 132.894 10.7343 131.311 10.7343L129.602 10.7353Z" fill="#263369"/>
<path d="M138.281 9.39941H145.112V10.9371H140.029V14.4969H144.658V16.0385H140.029V20.0572H145.112V21.5939H138.281V9.39941Z" fill="#263369"/>
<path d="M150.13 10.9273H146.335V9.38867H155.673V10.9273H151.879V21.595H150.13V10.9273Z" fill="#263369"/>
<path d="M161.988 21.8101C161.166 21.8443 160.347 21.7015 159.586 21.3913C158.824 21.0811 158.138 20.6109 157.575 20.0124C156.494 18.718 155.935 17.0673 156.006 15.3826C155.943 13.7082 156.505 12.0702 157.582 10.7865C158.14 10.1815 158.824 9.70453 159.584 9.38841C160.345 9.0723 161.165 8.92449 161.988 8.95512C162.81 8.92514 163.629 9.07328 164.389 9.38937C165.148 9.70546 165.831 10.182 166.389 10.7865C167.468 12.0692 168.032 13.7073 167.971 15.3826C168.042 17.0666 167.483 18.7165 166.403 20.0104C165.839 20.6095 165.153 21.0803 164.391 21.3908C163.629 21.7013 162.81 21.8443 161.988 21.8101ZM161.956 10.5205C161.366 10.5039 160.78 10.6301 160.249 10.8883C159.717 11.1466 159.256 11.5292 158.905 12.0037C158.215 12.9928 157.86 14.1771 157.893 15.3826C157.893 17.6243 158.965 20.2428 161.988 20.2428C165.011 20.2428 166.083 17.6233 166.083 15.3826C166.115 14.1784 165.76 12.9957 165.071 12.0077C164.719 11.5332 164.258 11.1505 163.727 10.8923C163.196 10.6341 162.61 10.5079 162.019 10.5244H161.956V10.5205Z" fill="#263369"/>
<path d="M111.054 21.6092H108.075V4.56152H112.299C115.225 4.56152 117.469 5.36249 118.977 6.94266C120.452 8.62978 121.205 10.8285 121.075 13.0656C121.159 14.3163 120.94 15.5688 120.436 16.7165C119.932 17.8641 119.158 18.873 118.18 19.6572C116.081 21.0668 113.579 21.7523 111.054 21.6092ZM110.011 6.13577V20.0488H111.404C113.99 20.0488 115.854 19.5623 117.115 18.5656C118.517 17.4492 119.198 15.6811 119.198 13.1595C119.198 10.7102 118.553 8.87289 117.278 7.69814C115.942 6.58821 114.233 6.02946 112.5 6.13577H110.011Z" fill="#263369"/>
<path d="M0.468741 7.32184C1.19752 7.16264 8.53673 2.71777 16.8895 2.61098C17.4514 2.60671 18.013 2.63975 18.5706 2.70986C23.3734 3.27153 23.4367 5.35305 23.7125 5.28086C24.1248 5.11623 24.4847 4.84283 24.7538 4.48979C24.7746 4.3642 24.1071 1.70124 19.0027 0.398931C13.6857 -0.949855 2.09638 1.48765 0.982941 2.29949C0.0751805 2.88093 -0.423198 7.68969 0.468741 7.32184Z" fill="#237131"/>
<path d="M0.467774 7.32591C1.19754 7.16374 8.53675 2.72185 16.8885 2.61505C17.4505 2.61078 18.012 2.64382 18.5696 2.71393C23.3724 3.2756 23.4357 5.35712 23.7116 5.28493C23.8224 5.25278 23.9279 5.20482 24.025 5.14254C24.0666 4.99817 23.0609 2.92654 19.0067 2.442C11.3846 1.50458 0.0148822 6.19269 0.0208153 6.58329C0.0712464 7.10935 0.211663 7.43073 0.467774 7.32591Z" fill="#115428"/>
<path d="M16.932 22.8217C23.7669 19.336 25.4272 11.3343 25.2511 9.52269C25.1384 8.89478 24.2623 7.99097 24.0645 8.26389C23.3304 11.0518 21.9619 13.6322 20.0658 15.8038C18.1697 17.9754 15.7973 19.6794 13.1338 20.7827C12.5227 21.1535 14.8267 23.2943 16.3644 23.0649C16.5606 23.003 16.7501 22.9215 16.93 22.8217" fill="#263369"/>
<path d="M16.932 22.8214C19.5492 21.4497 21.6994 19.3308 23.1093 16.734C23.2843 16.3306 18.2116 17.6388 18.0078 17.8218C16.5241 19.0239 14.8845 20.0198 13.1338 20.7824C12.5227 21.1532 14.8267 23.294 16.3644 23.0646C16.5606 23.0027 16.7501 22.9212 16.93 22.8214" fill="#1E274A"/>
<path d="M15.0333 23.577C13.5125 23.4218 10.5637 21.5242 10.2018 17.5767C9.68661 13.3889 11.3034 6.65886 11.5348 5.65617C11.8314 4.34694 11.8996 4.32617 11.248 4.32617C9.85372 4.32617 7.28273 5.38424 7.13638 5.96469C7.01376 6.44131 5.82121 12.4406 6.50352 16.9577C6.69713 18.5162 7.23704 20.0116 8.08369 21.3343C8.80739 22.4589 9.89699 23.2994 11.1685 23.7137C12.4401 24.1281 13.8156 24.091 15.063 23.6087C15.0748 23.6087 15.0402 23.577 15.0333 23.576" fill="#ECC507"/>
</svg>
