<svg width="40" height="40" viewBox="0 0 40 40" fill="none" xmlns="http://www.w3.org/2000/svg">
<path d="M34.37 26.2207L26.239 30.6757H6" stroke="#237131" stroke-width="1.5" stroke-miterlimit="10" stroke-linecap="round" stroke-linejoin="bevel"/>
<path d="M6.94702 34.7298L9.44602 30.6758" stroke="#237131" stroke-width="1.5" stroke-miterlimit="10" stroke-linecap="round" stroke-linejoin="bevel"/>
<path d="M32.06 34.7288L28.838 29.5938" stroke="#237131" stroke-width="1.5" stroke-miterlimit="10" stroke-linecap="round" stroke-linejoin="bevel"/>
<path d="M26 34.7297L20.189 18.7207" stroke="#237131" stroke-width="1.5" stroke-miterlimit="10" stroke-linecap="round" stroke-linejoin="bevel"/>
<path d="M16.512 8.48659L16.135 7.43359" stroke="#237131" stroke-width="1.5" stroke-miterlimit="10" stroke-linecap="round" stroke-linejoin="round"/>
<path d="M30.0987 15.2216C29.1652 12.5106 27.193 10.2814 24.616 9.02448C22.0389 7.76756 19.0681 7.58586 16.357 8.51935C13.646 9.45283 11.4168 11.425 10.1599 14.0021C8.90294 16.5792 8.72124 19.55 9.65473 22.2611L30.0987 15.2216Z" stroke="#237131" stroke-width="1.5" stroke-miterlimit="10" stroke-linecap="round" stroke-linejoin="round"/>
<path d="M24.513 17.1994C23.003 12.1374 16.513 8.48438 16.513 8.48438" stroke="#237131" stroke-width="1.5" stroke-miterlimit="10"/>
<path d="M16.513 8.48438C16.513 8.48438 14.042 16.2154 15.324 20.3704" stroke="#237131" stroke-width="1.5" stroke-miterlimit="10"/>
</svg>
