<svg width="40" height="40" viewBox="0 0 40 40" fill="none" xmlns="http://www.w3.org/2000/svg">
<path d="M16.939 25.9995H11.047C10.9484 25.9995 10.853 25.9647 10.7777 25.9012C10.7023 25.8377 10.6517 25.7497 10.635 25.6525C10.5724 25.2878 10.4135 24.9465 10.1748 24.6638C9.93601 24.3811 9.62607 24.1673 9.277 24.0445C9.19591 24.0159 9.1257 23.9629 9.07608 23.8926C9.02646 23.8224 8.99987 23.7385 9 23.6525V18.3475C8.99981 18.2614 9.02636 18.1773 9.07597 18.107C9.12559 18.0366 9.19583 17.9833 9.277 17.9545C9.62618 17.8319 9.93623 17.6182 10.175 17.3355C10.4138 17.0527 10.5726 16.7113 10.635 16.3465C10.6517 16.2494 10.7023 16.1613 10.7777 16.0978C10.853 16.0343 10.9484 15.9995 11.047 15.9995H16.939C16.9954 15.9968 17.0518 16.0055 17.1047 16.0252C17.1577 16.0448 17.2061 16.0751 17.247 16.114C17.2879 16.153 17.3204 16.1998 17.3427 16.2517C17.3649 16.3037 17.3764 16.3595 17.3764 16.416C17.3764 16.4725 17.3649 16.5284 17.3427 16.5803C17.3204 16.6322 17.2879 16.6791 17.247 16.718C17.2061 16.757 17.1577 16.7872 17.1047 16.8069C17.0518 16.8266 16.9954 16.8353 16.939 16.8325H11.378C11.2605 17.2223 11.0626 17.5831 10.797 17.8916C10.5314 18.2001 10.204 18.4495 9.836 18.6235V23.3745C10.2039 23.5491 10.5311 23.7987 10.7967 24.1073C11.0623 24.4159 11.2603 24.7767 11.378 25.1665H16.939C16.9954 25.1638 17.0518 25.1725 17.1047 25.1922C17.1577 25.2118 17.2061 25.2421 17.247 25.281C17.2879 25.32 17.3204 25.3668 17.3427 25.4187C17.3649 25.4707 17.3764 25.5265 17.3764 25.583C17.3764 25.6395 17.3649 25.6954 17.3427 25.7473C17.3204 25.7992 17.2879 25.8461 17.247 25.885C17.2061 25.924 17.1577 25.9542 17.1047 25.9739C17.0518 25.9936 16.9954 26.0023 16.939 25.9995Z" fill="#237131" stroke="#237131" stroke-width="0.5" stroke-miterlimit="10"/>
<path d="M22.418 25.9995H28.31C28.4086 25.9995 28.504 25.9647 28.5794 25.9012C28.6547 25.8377 28.7053 25.7497 28.722 25.6525C28.7846 25.2878 28.9435 24.9465 29.1822 24.6638C29.421 24.3811 29.7309 24.1673 30.08 24.0445C30.1611 24.0159 30.2313 23.9629 30.2809 23.8926C30.3305 23.8224 30.3571 23.7385 30.357 23.6525V18.3475C30.3572 18.2614 30.3306 18.1773 30.281 18.107C30.2314 18.0366 30.1612 17.9833 30.08 17.9545C29.7308 17.8319 29.4208 17.6182 29.182 17.3355C28.9432 17.0527 28.7844 16.7113 28.722 16.3465C28.7053 16.2494 28.6547 16.1613 28.5794 16.0978C28.504 16.0343 28.4086 15.9995 28.31 15.9995H22.418C22.3616 15.9968 22.3052 16.0055 22.2523 16.0252C22.1993 16.0448 22.1509 16.0751 22.11 16.114C22.0691 16.153 22.0366 16.1998 22.0143 16.2517C21.9921 16.3037 21.9806 16.3595 21.9806 16.416C21.9806 16.4725 21.9921 16.5284 22.0143 16.5803C22.0366 16.6322 22.0691 16.6791 22.11 16.718C22.1509 16.757 22.1993 16.7872 22.2523 16.8069C22.3052 16.8266 22.3616 16.8353 22.418 16.8325H27.979C28.0963 17.2224 28.2942 17.5832 28.5599 17.8917C28.8255 18.2003 29.1529 18.4496 29.521 18.6235V23.3745C29.1532 23.5488 28.8259 23.7983 28.5604 24.1067C28.2948 24.4152 28.0967 24.7759 27.979 25.1655H22.418C22.3632 25.1655 22.309 25.1763 22.2584 25.1973C22.2078 25.2182 22.1619 25.2489 22.1231 25.2877C22.0844 25.3264 22.0537 25.3724 22.0327 25.4229C22.0118 25.4735 22.001 25.5278 22.001 25.5825C22.001 25.6373 22.0118 25.6915 22.0327 25.7421C22.0537 25.7927 22.0844 25.8387 22.1231 25.8774C22.1619 25.9161 22.2078 25.9468 22.2584 25.9678C22.309 25.9887 22.3632 25.9995 22.418 25.9995Z" fill="#237131" stroke="#237131" stroke-width="0.5" stroke-miterlimit="10"/>
<path d="M19.5972 25.152C19.4894 25.1531 19.3854 25.1118 19.3078 25.0369C19.2302 24.9621 19.1851 24.8598 19.1822 24.752V24.166C18.4871 24.0886 17.8232 23.8353 17.2532 23.43C17.1756 23.3828 17.1117 23.3162 17.0677 23.2367C17.0237 23.1573 17.0011 23.0678 17.0022 22.977C17.0004 22.9087 17.0125 22.8408 17.0377 22.7774C17.0629 22.7139 17.1008 22.6563 17.1489 22.6078C17.197 22.5594 17.2545 22.5213 17.3178 22.4957C17.3811 22.4701 17.4489 22.4576 17.5172 22.459C17.6288 22.4568 17.7379 22.492 17.8272 22.559C18.2377 22.8732 18.7144 23.0897 19.2212 23.192V21.338C17.7722 20.959 17.2072 20.416 17.2072 19.402C17.217 19.1536 17.2761 18.9096 17.3811 18.6842C17.486 18.4588 17.6346 18.2565 17.8184 18.0891C18.0021 17.9216 18.2173 17.7923 18.4514 17.7087C18.6855 17.6251 18.9339 17.5888 19.1822 17.602V17.402C19.1848 17.2941 19.2298 17.1916 19.3075 17.1168C19.3852 17.0419 19.4893 17.0006 19.5972 17.002C19.6501 17.0013 19.7027 17.0112 19.7518 17.031C19.8009 17.0508 19.8456 17.0802 19.8833 17.1174C19.9209 17.1546 19.9509 17.1989 19.9713 17.2477C19.9917 17.2966 20.0022 17.349 20.0022 17.402V17.613C20.5202 17.6716 21.0181 17.8474 21.4582 18.127C21.5631 18.1787 21.6471 18.2647 21.6963 18.3708C21.7455 18.4769 21.7569 18.5966 21.7286 18.71C21.7003 18.8235 21.6341 18.9239 21.5409 18.9944C21.4476 19.065 21.3331 19.1016 21.2162 19.098C21.1168 19.0991 21.0193 19.0705 20.9362 19.016C20.6357 18.829 20.3082 18.6894 19.9652 18.602V20.408C21.3962 20.766 22.0022 21.346 22.0022 22.35C22.0022 23.354 21.2382 24.066 20.0022 24.182V24.748C20.0027 24.8013 19.9926 24.8541 19.9724 24.9035C19.9523 24.9528 19.9224 24.9976 19.8847 25.0352C19.847 25.0728 19.8021 25.1026 19.7527 25.1226C19.7034 25.1427 19.6505 25.1527 19.5972 25.152ZM19.9652 21.523V23.229C20.5552 23.168 20.8942 22.87 20.8942 22.413C20.8942 22.037 20.7382 21.756 19.9652 21.523ZM19.2202 18.541C18.6542 18.592 18.3202 18.889 18.3202 19.332C18.3202 19.822 18.6382 20.018 19.2202 20.207V18.541Z" fill="#237131"/>
<path d="M4.99991 17.136V27.769C4.9959 28.0913 5.12006 28.4021 5.34508 28.6329C5.5701 28.8637 5.87757 28.9958 6.19991 29L33.7999 29C34.1222 28.9958 34.4297 28.8637 34.6547 28.6329C34.8798 28.4021 35.0039 28.0913 34.9999 27.769V14.231C35.0039 13.9087 34.8798 13.5979 34.6547 13.3671C34.4297 13.1363 34.1222 13.0042 33.7999 13L4.99991 13" stroke="#237131" stroke-width="1.5" stroke-miterlimit="10" stroke-linecap="round" stroke-linejoin="round"/>
</svg>
