<svg width="40" height="40" viewBox="0 0 40 40" fill="none" xmlns="http://www.w3.org/2000/svg">
<path d="M20.151 28.2682C20.0698 28.2693 19.9914 28.2385 19.9327 28.1824C19.874 28.1263 19.8396 28.0494 19.837 27.9682V27.5242C19.3122 27.465 18.8109 27.2737 18.38 26.9682C18.3063 26.9241 18.249 26.857 18.2169 26.7772C18.1848 26.6974 18.1797 26.6093 18.2024 26.5264C18.2251 26.4435 18.2742 26.3702 18.3424 26.3178C18.4106 26.2654 18.494 26.2368 18.58 26.2362C18.6645 26.2375 18.7464 26.2655 18.814 26.3162C19.1235 26.5525 19.4825 26.7156 19.864 26.7932V25.3932C18.773 25.1062 18.347 24.6962 18.347 23.9252C18.347 23.1752 18.932 22.6442 19.836 22.5702V22.4182C19.8381 22.3367 19.8725 22.2594 19.9315 22.2031C19.9906 22.1469 20.0695 22.1164 20.151 22.1182C20.1909 22.1174 20.2306 22.1246 20.2677 22.1393C20.3048 22.1541 20.3385 22.176 20.367 22.204C20.3955 22.2319 20.4182 22.2652 20.4336 22.302C20.4491 22.3388 20.457 22.3783 20.457 22.4182V22.5772C20.8493 22.6221 21.2258 22.7573 21.557 22.9722C21.6213 23.0021 21.6757 23.0499 21.7136 23.1098C21.7516 23.1698 21.7715 23.2393 21.771 23.3102C21.7712 23.3624 21.7609 23.4141 21.7407 23.4621C21.7205 23.5102 21.6909 23.5538 21.6536 23.5903C21.6163 23.6267 21.5721 23.6553 21.5236 23.6744C21.475 23.6935 21.4232 23.7026 21.371 23.7012C21.2952 23.6999 21.2211 23.6778 21.157 23.6372C20.9305 23.497 20.684 23.3918 20.426 23.3252V24.6862C21.504 24.9572 21.965 25.3952 21.965 26.1512C21.965 26.9072 21.388 27.4442 20.457 27.5362V27.9642C20.4576 28.0045 20.45 28.0444 20.4348 28.0817C20.4196 28.1189 20.397 28.1528 20.3685 28.1811C20.3399 28.2095 20.306 28.2318 20.2686 28.2468C20.2313 28.2618 20.1913 28.2691 20.151 28.2682ZM20.427 25.5302V26.8182C20.873 26.7692 21.127 26.5452 21.127 26.2032C21.127 25.8612 20.939 25.6822 20.427 25.5302ZM19.865 23.2802C19.439 23.3182 19.188 23.5442 19.188 23.8802C19.188 24.1572 19.299 24.3552 19.87 24.5362V23.2802H19.865Z" fill="#237131"/>
<path d="M31.2232 33.1162H33.7522C34.0732 33.1107 34.3789 32.9779 34.602 32.7471C34.8252 32.5162 34.9475 32.2062 34.9422 31.8852V18.3472C34.9475 18.0262 34.8252 17.7162 34.602 17.4853C34.3789 17.2545 34.0732 17.1217 33.7522 17.1162H6.38017C6.05915 17.1217 5.75347 17.2545 5.53032 17.4853C5.30717 17.7162 5.18482 18.0262 5.19017 18.3472V31.8852C5.18482 32.2062 5.30717 32.5162 5.53032 32.7471C5.75347 32.9779 6.05915 33.1107 6.38017 33.1162H31.2232Z" stroke="#237131" stroke-width="1.5" stroke-miterlimit="10" stroke-linecap="round" stroke-linejoin="round"/>
<path d="M20.19 30.1162C22.9514 30.1162 25.19 27.8776 25.19 25.1162C25.19 22.3548 22.9514 20.1162 20.19 20.1162C17.4286 20.1162 15.19 22.3548 15.19 25.1162C15.19 27.8776 17.4286 30.1162 20.19 30.1162Z" stroke="#237131" stroke-miterlimit="10" stroke-linecap="round" stroke-linejoin="round"/>
<path d="M33.294 16.572L30.715 6.94802C30.6781 6.80979 30.6143 6.6802 30.5273 6.56666C30.4402 6.45311 30.3316 6.35785 30.2077 6.28633C30.0838 6.21481 29.947 6.16843 29.8052 6.14984C29.6633 6.13126 29.5192 6.14083 29.381 6.17802L5.17103 12.664C5.03267 12.7009 4.90295 12.7648 4.78928 12.8519C4.67562 12.939 4.58026 13.0476 4.50864 13.1716C4.43703 13.2956 4.39057 13.4325 4.37193 13.5745C4.3533 13.7165 4.36284 13.8607 4.40003 13.999L5.19103 17.099" stroke="#237131" stroke-width="1.5" stroke-miterlimit="10" stroke-linecap="round" stroke-linejoin="round"/>
</svg>
