<svg width="40" height="40" viewBox="0 0 40 40" fill="none" xmlns="http://www.w3.org/2000/svg">
<path d="M20 33C27.1797 33 33 27.1797 33 20C33 12.8203 27.1797 7 20 7C12.8203 7 7 12.8203 7 20C7 27.1797 12.8203 33 20 33Z" stroke="#237131" stroke-width="1.5" stroke-miterlimit="10"/>
<path d="M20.302 25.0003C20.1673 25.0038 20.0366 24.9538 19.9386 24.8612C19.8406 24.7686 19.7832 24.641 19.779 24.5063V23.7853C18.8991 23.6972 18.0559 23.3875 17.328 22.8853C17.2066 22.8143 17.1121 22.705 17.0593 22.5746C17.0066 22.4442 16.9986 22.3 17.0365 22.1646C17.0745 22.0291 17.1563 21.9101 17.2691 21.8261C17.3819 21.742 17.5194 21.6978 17.66 21.7003C17.8012 21.6998 17.939 21.7435 18.054 21.8253C18.5776 22.2157 19.1839 22.4809 19.826 22.6003V20.3243C17.981 19.8593 17.262 19.1933 17.262 17.9453C17.262 16.7213 18.248 15.8573 19.775 15.7403V15.5003C19.7766 15.4328 19.7915 15.3662 19.8188 15.3045C19.8462 15.2428 19.8855 15.1871 19.9345 15.1406C19.9835 15.0941 20.0412 15.0578 20.1042 15.0337C20.1673 15.0096 20.2345 14.9983 20.302 15.0003C20.369 14.9981 20.4358 15.0095 20.4983 15.0336C20.5608 15.0578 20.6178 15.0943 20.666 15.1409C20.7141 15.1876 20.7524 15.2434 20.7785 15.3051C20.8046 15.3669 20.8181 15.4332 20.818 15.5003V15.7503C21.4761 15.8231 22.1099 16.0406 22.674 16.3873C22.7806 16.4349 22.8709 16.5126 22.934 16.6108C22.997 16.7091 23.03 16.8235 23.029 16.9403C23.028 17.0261 23.0099 17.1108 22.9757 17.1896C22.9415 17.2683 22.8919 17.3394 22.8299 17.3987C22.7679 17.458 22.6946 17.5044 22.6145 17.5351C22.5343 17.5657 22.4488 17.5801 22.363 17.5773C22.2352 17.5759 22.1103 17.5393 22.002 17.4713C21.6189 17.2423 21.2041 17.0711 20.771 16.9633V19.1803C22.586 19.6213 23.362 20.3323 23.362 21.5613C23.362 22.8053 22.385 23.6663 20.814 23.8113V24.5113C20.8126 24.577 20.7982 24.6418 20.7717 24.702C20.7452 24.7622 20.707 24.8166 20.6595 24.862C20.6119 24.9074 20.5559 24.943 20.4945 24.9667C20.4332 24.9905 20.3678 25.0019 20.302 25.0003ZM20.772 20.5453V22.6453C21.525 22.5693 21.958 22.2023 21.958 21.6453C21.954 21.0213 21.502 20.7623 20.769 20.5453H20.772ZM19.821 16.8933C19.102 16.9613 18.674 17.3253 18.674 17.8663C18.674 18.3273 18.862 18.6363 19.821 18.9383V16.8933Z" fill="#237131"/>
</svg>
