<svg width="40" height="40" viewBox="0 0 40 40" fill="none" xmlns="http://www.w3.org/2000/svg">
<path d="M5.00001 11.1592C4.93225 11.1592 4.86515 11.1459 4.80254 11.1199C4.73994 11.094 4.68306 11.056 4.63514 11.0081C4.58723 10.9602 4.54922 10.9033 4.52329 10.8407C4.49736 10.7781 4.48401 10.711 4.48401 10.6432C4.48401 10.5755 4.49736 10.5084 4.52329 10.4458C4.54922 10.3832 4.58723 10.3263 4.63514 10.2784C4.68306 10.2304 4.73994 10.1924 4.80254 10.1665C4.86515 10.1406 4.93225 10.1272 5.00001 10.1272C19.88 10.1272 29.379 10.1272 31.983 6.22723C32.0448 6.13526 32.1344 6.06552 32.2387 6.02825C32.343 5.99097 32.4566 5.98813 32.5626 6.02012C32.6687 6.05212 32.7617 6.11728 32.828 6.20603C32.8943 6.29478 32.9304 6.40245 32.931 6.51323V9.10023C32.931 9.23734 32.8765 9.36884 32.7796 9.4658C32.6826 9.56276 32.5511 9.61723 32.414 9.61723C32.2769 9.61723 32.1454 9.56276 32.0484 9.4658C31.9515 9.36884 31.897 9.23734 31.897 9.10023V7.88423C28.215 11.1592 18.844 11.1592 5.00001 11.1592Z" fill="#237131" stroke="#237131" stroke-width="0.5" stroke-miterlimit="10"/>
<path d="M18.427 14.1557C16.586 14.1557 14.614 14.1417 12.517 14.1277C10.29 14.1127 7.43201 14.1007 5.00001 14.1007C4.86316 14.1007 4.73191 14.0463 4.63514 13.9495C4.53837 13.8528 4.48401 13.7215 4.48401 13.5847C4.48401 13.4478 4.53837 13.3166 4.63514 13.2198C4.73191 13.123 4.86316 13.0687 5.00001 13.0687C7.43501 13.0687 10.294 13.0857 12.523 13.0997C23.483 13.1667 32.134 13.2287 34.107 11.1607C34.1783 11.0858 34.2704 11.034 34.3715 11.0119C34.4725 10.9899 34.5778 10.9985 34.6738 11.0368C34.7699 11.0751 34.8523 11.1413 34.9104 11.2268C34.9685 11.3123 34.9997 11.4133 35 11.5167V13.5797C35 13.7168 34.9455 13.8483 34.8486 13.9452C34.7516 14.0422 34.6201 14.0967 34.483 14.0967C34.3459 14.0967 34.2144 14.0422 34.1174 13.9452C34.0205 13.8483 33.966 13.7168 33.966 13.5797V12.5397C31.475 13.9207 26.092 14.1557 18.427 14.1557Z" fill="#237131" stroke="#237131" stroke-width="0.5" stroke-miterlimit="10"/>
<path d="M16.939 29.9995H11.047C10.9484 29.9995 10.853 29.9647 10.7777 29.9012C10.7023 29.8377 10.6517 29.7497 10.635 29.6525C10.5724 29.2878 10.4135 28.9465 10.1748 28.6638C9.93601 28.3811 9.62607 28.1673 9.277 28.0445C9.19591 28.0159 9.1257 27.9629 9.07608 27.8926C9.02646 27.8224 8.99987 27.7385 9 27.6525V22.3475C8.99981 22.2614 9.02636 22.1773 9.07597 22.107C9.12559 22.0366 9.19583 21.9833 9.277 21.9545C9.62618 21.8319 9.93623 21.6182 10.175 21.3355C10.4138 21.0527 10.5726 20.7113 10.635 20.3465C10.6517 20.2494 10.7023 20.1613 10.7777 20.0978C10.853 20.0343 10.9484 19.9995 11.047 19.9995H16.939C16.9954 19.9968 17.0518 20.0055 17.1047 20.0252C17.1577 20.0448 17.2061 20.0751 17.247 20.114C17.2879 20.153 17.3204 20.1998 17.3427 20.2517C17.3649 20.3037 17.3764 20.3595 17.3764 20.416C17.3764 20.4725 17.3649 20.5284 17.3427 20.5803C17.3204 20.6322 17.2879 20.6791 17.247 20.718C17.2061 20.757 17.1577 20.7872 17.1047 20.8069C17.0518 20.8266 16.9954 20.8353 16.939 20.8325H11.378C11.2605 21.2223 11.0626 21.5831 10.797 21.8916C10.5314 22.2001 10.204 22.4495 9.836 22.6235V27.3745C10.2039 27.5491 10.5311 27.7987 10.7967 28.1073C11.0623 28.4159 11.2603 28.7767 11.378 29.1665H16.939C16.9954 29.1638 17.0518 29.1725 17.1047 29.1922C17.1577 29.2118 17.2061 29.2421 17.247 29.281C17.2879 29.32 17.3204 29.3668 17.3427 29.4187C17.3649 29.4707 17.3764 29.5265 17.3764 29.583C17.3764 29.6395 17.3649 29.6954 17.3427 29.7473C17.3204 29.7992 17.2879 29.8461 17.247 29.885C17.2061 29.924 17.1577 29.9542 17.1047 29.9739C17.0518 29.9936 16.9954 30.0023 16.939 29.9995Z" fill="#237131" stroke="#237131" stroke-width="0.5" stroke-miterlimit="10"/>
<path d="M22.418 29.9995H28.31C28.4086 29.9995 28.504 29.9647 28.5794 29.9012C28.6547 29.8377 28.7053 29.7497 28.722 29.6525C28.7846 29.2878 28.9435 28.9465 29.1822 28.6638C29.421 28.3811 29.7309 28.1673 30.08 28.0445C30.1611 28.0159 30.2313 27.9629 30.2809 27.8926C30.3305 27.8224 30.3571 27.7385 30.357 27.6525V22.3475C30.3572 22.2614 30.3306 22.1773 30.281 22.107C30.2314 22.0366 30.1612 21.9833 30.08 21.9545C29.7308 21.8319 29.4208 21.6182 29.182 21.3355C28.9432 21.0527 28.7844 20.7113 28.722 20.3465C28.7053 20.2494 28.6547 20.1613 28.5794 20.0978C28.504 20.0343 28.4086 19.9995 28.31 19.9995H22.418C22.3616 19.9968 22.3052 20.0055 22.2523 20.0252C22.1993 20.0448 22.1509 20.0751 22.11 20.114C22.0691 20.153 22.0366 20.1998 22.0143 20.2517C21.9921 20.3037 21.9806 20.3595 21.9806 20.416C21.9806 20.4725 21.9921 20.5284 22.0143 20.5803C22.0366 20.6322 22.0691 20.6791 22.11 20.718C22.1509 20.757 22.1993 20.7872 22.2523 20.8069C22.3052 20.8266 22.3616 20.8353 22.418 20.8325H27.979C28.0963 21.2224 28.2942 21.5832 28.5599 21.8917C28.8255 22.2003 29.1529 22.4496 29.521 22.6235V27.3745C29.1532 27.5488 28.8259 27.7983 28.5604 28.1067C28.2948 28.4152 28.0967 28.7759 27.979 29.1655H22.418C22.3632 29.1655 22.309 29.1763 22.2584 29.1973C22.2078 29.2182 22.1619 29.2489 22.1231 29.2877C22.0844 29.3264 22.0537 29.3724 22.0327 29.4229C22.0118 29.4735 22.001 29.5278 22.001 29.5825C22.001 29.6373 22.0118 29.6915 22.0327 29.7421C22.0537 29.7927 22.0844 29.8387 22.1231 29.8774C22.1619 29.9161 22.2078 29.9468 22.2584 29.9678C22.309 29.9887 22.3632 29.9995 22.418 29.9995Z" fill="#237131" stroke="#237131" stroke-width="0.5" stroke-miterlimit="10"/>
<path d="M19.5972 29.152C19.4894 29.1531 19.3854 29.1118 19.3078 29.0369C19.2302 28.9621 19.1851 28.8598 19.1822 28.752V28.166C18.4871 28.0886 17.8232 27.8353 17.2532 27.43C17.1756 27.3828 17.1117 27.3162 17.0677 27.2367C17.0237 27.1573 17.0011 27.0678 17.0022 26.977C17.0004 26.9087 17.0125 26.8408 17.0377 26.7774C17.0629 26.7139 17.1008 26.6563 17.1489 26.6078C17.197 26.5594 17.2545 26.5213 17.3178 26.4957C17.3811 26.4701 17.4489 26.4576 17.5172 26.459C17.6288 26.4568 17.7379 26.492 17.8272 26.559C18.2377 26.8732 18.7144 27.0897 19.2212 27.192V25.338C17.7722 24.959 17.2072 24.416 17.2072 23.402C17.217 23.1536 17.2761 22.9096 17.3811 22.6842C17.486 22.4588 17.6346 22.2565 17.8184 22.0891C18.0021 21.9216 18.2173 21.7923 18.4514 21.7087C18.6855 21.6251 18.9339 21.5888 19.1822 21.602V21.402C19.1848 21.2941 19.2298 21.1916 19.3075 21.1168C19.3852 21.0419 19.4893 21.0006 19.5972 21.002C19.6501 21.0013 19.7027 21.0112 19.7518 21.031C19.8009 21.0508 19.8456 21.0802 19.8833 21.1174C19.9209 21.1546 19.9509 21.1989 19.9713 21.2477C19.9917 21.2966 20.0022 21.349 20.0022 21.402V21.613C20.5202 21.6716 21.0181 21.8474 21.4582 22.127C21.5631 22.1787 21.6471 22.2647 21.6963 22.3708C21.7455 22.4769 21.7569 22.5966 21.7286 22.71C21.7003 22.8235 21.6341 22.9239 21.5409 22.9944C21.4476 23.065 21.3331 23.1016 21.2162 23.098C21.1168 23.0991 21.0193 23.0705 20.9362 23.016C20.6357 22.829 20.3082 22.6894 19.9652 22.602V24.408C21.3962 24.766 22.0022 25.346 22.0022 26.35C22.0022 27.354 21.2382 28.066 20.0022 28.182V28.748C20.0027 28.8013 19.9926 28.8541 19.9724 28.9035C19.9523 28.9528 19.9224 28.9976 19.8847 29.0352C19.847 29.0728 19.8021 29.1026 19.7527 29.1226C19.7034 29.1427 19.6505 29.1527 19.5972 29.152ZM19.9652 25.523V27.229C20.5552 27.168 20.8942 26.87 20.8942 26.413C20.8942 26.037 20.7382 25.756 19.9652 25.523ZM19.2202 22.541C18.6542 22.592 18.3202 22.889 18.3202 23.332C18.3202 23.822 18.6382 24.018 19.2202 24.207V22.541Z" fill="#237131"/>
<path d="M4.99991 21.136V31.769C4.9959 32.0913 5.12006 32.4021 5.34508 32.6329C5.5701 32.8637 5.87757 32.9958 6.19991 33H33.7999C34.1222 32.9958 34.4297 32.8637 34.6547 32.6329C34.8798 32.4021 35.0039 32.0913 34.9999 31.769V18.231C35.0039 17.9087 34.8798 17.5979 34.6547 17.3671C34.4297 17.1363 34.1222 17.0042 33.7999 17L4.99991 17" stroke="#237131" stroke-width="1.5" stroke-miterlimit="10" stroke-linecap="round" stroke-linejoin="round"/>
</svg>
