<svg width="40" height="40" viewBox="0 0 40 40" fill="none" xmlns="http://www.w3.org/2000/svg">
<path d="M23.25 15.958V14.3747C24.1389 13.9302 25.0833 13.6038 26.0833 13.3955C27.0833 13.1872 28.1111 13.083 29.1667 13.083C29.8333 13.083 30.4792 13.1316 31.1042 13.2288C31.7292 13.3261 32.3611 13.458 33 13.6247V15.083C32.3889 14.8608 31.7708 14.7011 31.1458 14.6038C30.5208 14.5066 29.8611 14.458 29.1667 14.458C28.1111 14.458 27.0833 14.59 26.0833 14.8538C25.0833 15.1177 24.1389 15.4858 23.25 15.958ZM23.25 25.083V23.4163C24.1389 23.0275 25.0833 22.7288 26.0833 22.5205C27.0833 22.3122 28.1111 22.208 29.1667 22.208C29.8333 22.208 30.4792 22.2566 31.1042 22.3538C31.7292 22.4511 32.3611 22.5691 33 22.708V24.208C32.3889 23.9858 31.7708 23.8261 31.1458 23.7288C30.5208 23.6316 29.8611 23.583 29.1667 23.583C28.1111 23.583 27.0833 23.708 26.0833 23.958C25.0833 24.208 24.1389 24.583 23.25 25.083ZM23.25 20.5413V18.9163C24.1389 18.4997 25.0833 18.1802 26.0833 17.958C27.0833 17.7358 28.1111 17.6247 29.1667 17.6247C29.8333 17.6247 30.4792 17.6733 31.1042 17.7705C31.7292 17.8677 32.3611 17.9997 33 18.1663V19.6247C32.3889 19.4302 31.7708 19.2844 31.1458 19.1872C30.5208 19.09 29.8611 19.0413 29.1667 19.0413C28.1111 19.0413 27.0833 19.1733 26.0833 19.4372C25.0833 19.7011 24.1389 20.0691 23.25 20.5413ZM10.4583 27.2913C11.9861 27.2913 13.4653 27.4719 14.8958 27.833C16.3264 28.1941 17.7361 28.7497 19.125 29.4997V12.083C17.875 11.1941 16.5 10.5205 15 10.0622C13.5 9.60384 11.9861 9.37467 10.4583 9.37467C9.40278 9.37467 8.4375 9.4719 7.5625 9.66634C6.6875 9.86079 5.75 10.1386 4.75 10.4997C4.61111 10.5552 4.51389 10.6247 4.45833 10.708C4.40278 10.7913 4.375 10.8747 4.375 10.958V27.8747C4.375 28.0136 4.43056 28.1177 4.54167 28.1872C4.65278 28.2566 4.77778 28.2775 4.91667 28.2497C5.61111 27.9163 6.44444 27.6733 7.41667 27.5205C8.38889 27.3677 9.40278 27.2913 10.4583 27.2913ZM21 29.4997C22.4167 28.7497 23.8125 28.1941 25.1875 27.833C26.5625 27.4719 28.0139 27.2913 29.5417 27.2913C30.5972 27.2913 31.6181 27.3677 32.6042 27.5205C33.5903 27.6733 34.4167 27.8608 35.0833 28.083C35.2222 28.1386 35.3472 28.1316 35.4583 28.0622C35.5694 27.9927 35.625 27.8747 35.625 27.708V10.958C35.625 10.8747 35.5972 10.7913 35.5417 10.708C35.4861 10.6247 35.3889 10.5552 35.25 10.4997C34.3333 10.1108 33.4167 9.82606 32.5 9.64551C31.5833 9.46495 30.5972 9.37467 29.5417 9.37467C28.0139 9.37467 26.5208 9.60384 25.0625 10.0622C23.6042 10.5205 22.25 11.1941 21 12.083V29.4997ZM20.0417 32.2913C18.6528 31.3191 17.1389 30.5622 15.5 30.0205C13.8611 29.4788 12.1806 29.208 10.4583 29.208C9.56944 29.208 8.6875 29.3052 7.8125 29.4997C6.9375 29.6941 6.05556 29.9302 5.16667 30.208C4.52778 30.5136 3.92361 30.465 3.35417 30.0622C2.78472 29.6594 2.5 29.0969 2.5 28.3747V10.833C2.5 10.3886 2.61111 9.98579 2.83333 9.62467C3.05556 9.26356 3.36111 8.98579 3.75 8.79134C4.80556 8.3469 5.89583 8.01356 7.02083 7.79134C8.14583 7.56912 9.29167 7.45801 10.4583 7.45801C12.1806 7.45801 13.8542 7.70106 15.4792 8.18717C17.1042 8.67329 18.6389 9.40245 20.0833 10.3747C21.4722 9.40245 22.9722 8.67329 24.5833 8.18717C26.1944 7.70106 27.8472 7.45801 29.5417 7.45801C30.7083 7.45801 31.8472 7.56912 32.9583 7.79134C34.0694 8.01356 35.1528 8.3469 36.2083 8.79134C36.625 8.98579 36.9444 9.26356 37.1667 9.62467C37.3889 9.98579 37.5 10.3886 37.5 10.833V28.3747C37.5 29.1247 37.1875 29.7011 36.5625 30.1038C35.9375 30.5066 35.3194 30.5413 34.7083 30.208C33.8472 29.9025 32.9861 29.6594 32.125 29.4788C31.2639 29.2983 30.4028 29.208 29.5417 29.208C27.8194 29.208 26.1597 29.4788 24.5625 30.0205C22.9653 30.5622 21.4583 31.3191 20.0417 32.2913Z" fill="#237131"/>
</svg>
