<svg width="60" height="60" viewBox="0 0 60 60" fill="none" xmlns="http://www.w3.org/2000/svg">
<g clip-path="url(#clip0_2617_8472)">
<path d="M60 32.1167C60 32.043 60 31.9694 60 31.8958C59.8528 29.0124 57.4724 26.7179 54.5521 26.7179C52.1963 26.7179 50.1963 28.2025 49.4356 30.2884L45.4847 29.8958C45.4847 29.859 45.4847 29.8222 45.4847 29.7854C45.4847 24.767 43.0307 20.3252 39.2515 17.5891L42.6503 11.859C43.1288 11.994 43.6442 12.0798 44.1718 12.0798C47.1779 12.0798 49.6196 9.63813 49.6196 6.632C49.6196 6.61973 49.6196 6.61973 49.6196 6.60746C49.6196 6.59519 49.6196 6.59519 49.6196 6.58292C49.6196 3.58905 47.2025 1.17188 44.1963 1.17188H44.1841H44.1718C41.1656 1.17188 38.7239 3.61359 38.7239 6.61973C38.7239 8.11666 39.3374 9.47862 40.319 10.4725L36.9202 16.1903C34.9571 15.2455 32.7485 14.7179 30.4172 14.7179C26.589 14.7179 23.1043 16.1412 20.454 18.4848L18.8589 16.9878C19.2883 16.2025 19.5337 15.3068 19.5337 14.3498C19.5337 11.3437 17.092 8.90194 14.0859 8.90194H14.0736H14.0613C11.0675 8.90194 8.63804 11.3191 8.63804 14.313C8.63804 14.3252 8.63804 14.3252 8.63804 14.3375C8.63804 14.3498 8.63804 14.3498 8.63804 14.3621C8.63804 17.3682 11.0798 19.8099 14.0859 19.8099C15.1534 19.8099 16.1472 19.5032 16.9939 18.9756L18.5767 20.4725C16.5521 23.0369 15.3497 26.2762 15.3497 29.7854C15.3497 30.9756 15.4847 32.1412 15.7546 33.2578L10.0368 35.1719C9.06748 33.6627 7.37423 32.6688 5.44785 32.6688C2.44172 32.6688 0 35.1105 0 38.1167V38.1289V38.1412C0 41.1351 2.41718 43.5522 5.41104 43.5522C5.42331 43.5522 5.42331 43.5522 5.43558 43.5522C5.44785 43.5522 5.44785 43.5522 5.46012 43.5522C8.46626 43.5522 10.908 41.1105 10.908 38.1044C10.908 37.9817 10.908 37.859 10.8957 37.7486L16.6258 35.8344C18.9571 41.1351 24.2577 44.8406 30.4172 44.8406C31.1043 44.8406 31.7791 44.7915 32.4417 44.7056L33.3252 48.5461C31.5828 49.4541 30.3804 51.2823 30.3804 53.3805C30.3804 56.3866 32.8221 58.8283 35.8282 58.8283C36.2086 58.8283 36.5644 58.7915 36.9202 58.7179C39.411 58.2148 41.2761 56.0062 41.2761 53.3805C41.2761 50.4234 38.908 48.0062 35.9632 47.9326L35.0798 44.0921C40.2331 42.4111 44.1718 38.0185 45.2025 32.5952L49.1534 32.9878C49.5583 35.6013 51.816 37.6013 54.5399 37.6013C57.4601 37.6013 59.8405 35.3068 59.9877 32.4234C59.9877 32.3252 60 32.2394 60 32.1412C60 32.1535 60 32.1412 60 32.1167ZM40 37.3437C39.865 36.3989 39.4233 35.3805 38.2331 35.086C35.8405 34.4725 33.8896 33.1105 33.8896 33.1105L32.3681 37.9203L32.0859 38.8283V38.816L31.8405 39.5768L31.0429 37.3068C33.0184 34.5584 30.6503 34.5829 30.5153 34.5952C30.3804 34.5952 28.0123 34.5584 29.9877 37.3068L29.1902 39.5768L28.9448 38.816V38.8283L28.6626 37.9203L27.1411 33.1105C27.1411 33.1105 25.1902 34.4848 22.7975 35.086C21.5828 35.3927 21.1534 36.4479 21.0307 37.4173C19.3497 35.3314 18.3436 32.6811 18.3436 29.7976C18.3436 23.0737 23.7914 17.6381 30.5031 17.6381C37.227 17.6381 42.6626 23.086 42.6626 29.7976C42.6258 32.6443 41.6442 35.27 40 37.3437Z" fill="#2B59C3"/>
<path d="M34.9448 26.6319C35.0184 26.4234 35.0798 26.2025 35.1166 25.9939C35.7792 21.9939 33.816 21.8589 33.816 21.8589C33.816 21.8589 33.4847 21.2332 32.6258 20.7546C32.0491 20.4111 31.2516 20.1534 30.1841 20.2393C29.8405 20.2516 29.5215 20.3252 29.2147 20.4234C28.8221 20.5583 28.4663 20.7424 28.1473 20.9755C27.7546 21.2209 27.3743 21.5276 27.043 21.8835C26.5276 22.4111 26.0614 23.1105 25.8528 23.9694C25.681 24.6074 25.7178 25.2822 25.865 26.0062C25.9019 26.2148 25.9632 26.4234 26.0368 26.6442C25.6442 26.6074 25.1779 26.8405 25.6196 28.3743C25.9387 29.5031 26.2331 29.8221 26.4663 29.8344C26.6749 31.1718 27.7055 32.8896 29.4111 33.4786C30.1104 33.724 30.8712 33.724 31.5706 33.4786C33.2516 32.8773 34.319 31.1718 34.5276 29.8344C34.7485 29.8221 35.0552 29.5031 35.3742 28.3743C35.8037 26.8283 35.3374 26.5951 34.9448 26.6319Z" fill="#2B59C3"/>
</g>
<defs>
<clipPath id="clip0_2617_8472">
<rect width="60" height="60" fill="white"/>
</clipPath>
</defs>
</svg>
