<svg width="61" height="60" viewBox="0 0 61 60" fill="none" xmlns="http://www.w3.org/2000/svg">
<g clip-path="url(#clip0_2617_639)">
<path d="M9.71078 52.3359C7.00658 52.3359 4.7157 54.1781 4.03079 56.6697H15.379C14.7059 54.1663 12.4268 52.3359 9.71078 52.3359Z" fill="white"/>
<path d="M30.4941 52.3359C27.7899 52.3359 25.499 54.1781 24.8141 56.6697H36.1623C35.4892 54.1663 33.1983 52.3359 30.4941 52.3359Z" fill="white"/>
<path d="M51.2774 52.3359C48.5732 52.3359 46.2823 54.1781 45.5974 56.6697H56.9456C56.2725 54.1663 53.9816 52.3359 51.2774 52.3359Z" fill="white"/>
<path d="M9.71079 48.9941C4.63304 48.9941 0.5 53.1272 0.5 58.2049V58.323C0.5 59.2441 1.24395 59.988 2.16503 59.988H17.2684C18.1894 59.988 18.9334 59.2441 18.9334 58.323V58.2049C18.9334 53.1272 14.8003 48.9941 9.71079 48.9941ZM4.04261 56.6698C4.72751 54.1782 7.00659 52.336 9.72259 52.336C12.4386 52.336 14.7177 54.1782 15.4026 56.6698H4.04261Z" fill="#2B59C3"/>
<path d="M30.4941 48.9941C25.4164 48.9941 21.2833 53.1272 21.2833 58.2049V58.323C21.2833 59.2441 22.0273 59.988 22.9483 59.988H38.0517C38.9727 59.988 39.7167 59.2441 39.7167 58.323V58.2049C39.7049 53.1272 35.5718 48.9941 30.4941 48.9941ZM24.8141 56.6698C25.499 54.1782 27.7781 52.336 30.4941 52.336C33.1983 52.336 35.4892 54.1782 36.1741 56.6698H24.8141Z" fill="#2B59C3"/>
<path d="M51.2774 48.9941C46.1997 48.9941 42.0666 53.1272 42.0666 58.2049V58.323C42.0666 59.2441 42.8106 59.988 43.7316 59.988H58.835C59.7561 59.988 60.5 59.2441 60.5 58.323V58.2049C60.4882 53.1272 56.3551 48.9941 51.2774 48.9941ZM45.5974 56.6698C46.2823 54.1782 48.5614 52.336 51.2774 52.336C53.9934 52.336 56.2725 54.1782 56.9574 56.6698H45.5974Z" fill="#2B59C3"/>
<path d="M30.4941 26.9828C37.0125 26.9828 42.3146 21.6807 42.3146 15.1623C42.3146 8.6439 37.0125 3.3418 30.4941 3.3418C23.9757 3.3418 18.6736 8.6439 18.6736 15.1623C18.6736 21.6807 23.9757 26.9828 30.4941 26.9828Z" fill="white"/>
<path d="M9.71078 40.2324C8.56534 40.2324 7.64426 41.1653 7.64426 42.2989C7.64426 43.4444 8.57714 44.3655 9.71078 44.3655C10.8562 44.3655 11.7773 43.4326 11.7773 42.2989C11.7773 41.1653 10.8562 40.2324 9.71078 40.2324Z" fill="white"/>
<path d="M30.4941 40.2324C29.3487 40.2324 28.4276 41.1653 28.4276 42.2989C28.4276 43.4444 29.3605 44.3655 30.4941 44.3655C31.6395 44.3655 32.5606 43.4326 32.5606 42.2989C32.5606 41.1653 31.6395 40.2324 30.4941 40.2324Z" fill="white"/>
<path d="M51.2774 40.2324C50.132 40.2324 49.2109 41.1653 49.2109 42.2989C49.2109 43.4444 50.1438 44.3655 51.2774 44.3655C52.411 44.3655 53.3439 43.4326 53.3439 42.2989C53.3439 41.1653 52.411 40.2324 51.2774 40.2324Z" fill="white"/>
<path d="M52.9424 37.1619V34.127C52.9424 33.206 52.1985 32.462 51.2774 32.462H32.1591V30.2184C39.7285 29.38 45.6447 22.956 45.6447 15.1623C45.6447 6.81353 38.8547 0.0117188 30.4941 0.0117188C22.1335 0.0117188 15.3435 6.81353 15.3435 15.1623C15.3435 22.956 21.2597 29.38 28.8291 30.2184V32.462H9.71078C8.78971 32.462 8.04576 33.206 8.04576 34.127V37.1619C5.88477 37.8704 4.31421 39.9015 4.31421 42.2987C4.31421 45.2745 6.73499 47.6952 9.71078 47.6952C12.6866 47.6952 15.1074 45.2745 15.1074 42.2987C15.1074 39.9015 13.5368 37.8704 11.3758 37.1619V35.7921H28.8173V37.1619C26.6563 37.8704 25.0857 39.9015 25.0857 42.2987C25.0857 45.2745 27.5065 47.6952 30.4823 47.6952C33.4581 47.6952 35.8789 45.2745 35.8789 42.2987C35.8789 39.9015 34.3083 37.8704 32.1473 37.1619V35.7921H49.5888V37.1619C47.4278 37.8704 45.8572 39.9015 45.8572 42.2987C45.8572 45.2745 48.278 47.6952 51.2538 47.6952C54.2296 47.6952 56.6504 45.2745 56.6504 42.2987C56.674 39.9015 55.1034 37.8704 52.9424 37.1619ZM9.71078 44.3652C8.56534 44.3652 7.64426 43.4323 7.64426 42.2987C7.64426 41.1532 8.57715 40.2321 9.71078 40.2321C10.8562 40.2321 11.7773 41.165 11.7773 42.2987C11.7773 43.4441 10.8562 44.3652 9.71078 44.3652ZM30.4941 44.3652C29.3486 44.3652 28.4276 43.4323 28.4276 42.2987C28.4276 41.1532 29.3605 40.2321 30.4941 40.2321C31.6395 40.2321 32.5606 41.165 32.5606 42.2987C32.5606 43.4441 31.6395 44.3652 30.4941 44.3652ZM30.4941 3.34177C37.0125 3.34177 42.3146 8.64388 42.3146 15.1623C42.3146 21.6807 37.0125 26.9828 30.4941 26.9828C23.9757 26.9828 18.6736 21.6807 18.6736 15.1623C18.6736 8.64388 23.9757 3.34177 30.4941 3.34177ZM51.2774 44.3652C50.132 44.3652 49.2109 43.4323 49.2109 42.2987C49.2109 41.1532 50.1438 40.2321 51.2774 40.2321C52.411 40.2321 53.3439 41.165 53.3439 42.2987C53.3439 43.4441 52.411 44.3652 51.2774 44.3652Z" fill="#2B59C3"/>
<path d="M32.1591 24.2309V23.487C34.1784 22.7903 35.6309 20.8773 35.6309 18.6336C35.6309 15.7995 33.3282 13.4968 30.4941 13.4968C29.5022 13.4968 28.6874 12.682 28.6874 11.6901C28.6874 10.6982 29.5022 9.88335 30.4941 9.88335C31.2262 9.88335 31.8757 10.3203 32.1591 10.9816C32.5134 11.8318 33.4935 12.2215 34.3437 11.8672C35.194 11.513 35.5836 10.5328 35.2294 9.68261C34.6508 8.3128 33.5171 7.29725 32.1591 6.83671V6.09276C32.1591 5.17168 31.4152 4.42773 30.4941 4.42773C29.573 4.42773 28.8291 5.17168 28.8291 6.09276V6.83671C26.8098 7.53342 25.3573 9.44643 25.3573 11.6901C25.3573 14.5242 27.66 16.8269 30.4941 16.8269C31.486 16.8269 32.3008 17.6417 32.3008 18.6336C32.3008 19.6255 31.486 20.4403 30.4941 20.4403C29.6911 20.4403 29.0062 19.9326 28.77 19.165C28.4984 18.2793 27.5655 17.7952 26.6917 18.0668C25.8179 18.3384 25.3219 19.2713 25.5935 20.1451C26.0895 21.7629 27.3058 22.9792 28.8409 23.4988V24.2427C28.8409 25.1638 29.5848 25.9078 30.5059 25.9078C31.4152 25.8959 32.1591 25.152 32.1591 24.2309Z" fill="#2B59C3"/>
</g>
<defs>
<clipPath id="clip0_2617_639">
<rect width="60" height="60" fill="white" transform="translate(0.5)"/>
</clipPath>
</defs>
</svg>
