<svg width="40" height="40" viewBox="0 0 40 40" fill="none" xmlns="http://www.w3.org/2000/svg">
<path d="M28.906 34.6497H20.35V31.6663V31.3163H20H16.6666H16.3166V31.6663V34.6497H7.76085C6.8422 31.5675 5.93672 28.4918 5.0444 25.4228C4.13702 22.302 3.68331 19.1057 3.68331 15.833C3.68331 13.3686 4.53653 11.2914 6.24747 9.5805C7.9584 7.86956 10.0355 7.01634 12.5 7.01634H20.8333H21.0065L21.1115 6.87868C21.886 5.86388 22.8245 5.07913 23.9288 4.5203C25.031 3.96257 26.2197 3.68301 27.5 3.68301C28.1027 3.68301 28.6036 3.88993 29.0233 4.30966C29.4431 4.72939 29.65 5.23033 29.65 5.83301C29.65 5.97019 29.6329 6.10836 29.5979 6.24812C29.5596 6.40164 29.5156 6.53912 29.4667 6.66136L29.4665 6.66129L29.4627 6.67173C29.3494 6.98329 29.2433 7.3017 29.1443 7.62693L29.4791 7.72884L29.1443 7.62694C29.0426 7.9611 28.9628 8.30232 28.9047 8.65047L28.8751 8.82813L29.0025 8.9555L32.7942 12.7472L32.8967 12.8497H33.0417H36.3167V23.871L31.8494 25.3337L31.6754 25.3907L31.623 25.566L28.906 34.6497ZM9.6624 31.7587L9.7329 32.0163H9.99998H13.3333H13.6833V31.6663V28.683H22.9833V31.6663V32.0163H23.3333H26.6666H26.9268L27.0018 31.7672L29.533 23.357L33.445 22.0397L33.6833 21.9595V21.708V15.833V15.483H33.3333H31.8116L26.1841 9.85551C26.1896 9.36632 26.2231 8.89534 26.2843 8.44238C26.3518 7.94344 26.453 7.4367 26.5885 6.92208L26.7433 6.33386L26.1569 6.49561C25.3011 6.7317 24.5449 7.13896 23.8928 7.71692C23.2957 8.24618 22.8474 8.89226 22.548 9.64967H12.5C10.7961 9.64967 9.33204 10.256 8.12749 11.4605C6.92294 12.6651 6.31665 14.1291 6.31665 15.833C6.31665 18.5878 6.69621 21.2803 7.45539 23.9093C8.20493 26.5049 8.9406 29.1214 9.6624 31.7587ZM27.6067 17.6064C27.3561 17.8569 27.0507 17.983 26.6666 17.983C26.2826 17.983 25.9772 17.8569 25.7266 17.6064C25.4761 17.3558 25.35 17.0504 25.35 16.6663C25.35 16.2823 25.4761 15.9769 25.7266 15.7263C25.9772 15.4758 26.2826 15.3497 26.6666 15.3497C27.0507 15.3497 27.3561 15.4758 27.6067 15.7263C27.8572 15.9769 27.9833 16.2823 27.9833 16.6663C27.9833 17.0504 27.8572 17.3558 27.6067 17.6064ZM21.3166 12.0163V14.6497H13.6833V12.0163H21.3166Z" fill="#237131" stroke="white" stroke-width="0.7"/>
</svg>
