<svg width="48" height="48" viewBox="0 0 48 48" fill="none" xmlns="http://www.w3.org/2000/svg">
<path d="M34.6277 41.5H24.5V38V37.5H24H20H19.5V38V41.5H9.37268C8.27619 37.8206 7.19534 34.1491 6.13012 30.4854C5.0434 26.7477 4.5 22.9198 4.5 19C4.5 16.0635 5.51571 13.5914 7.55355 11.5536C9.5914 9.51571 12.0635 8.5 15 8.5H25H25.2474L25.3975 8.30334C26.3197 7.09489 27.4366 6.16113 28.7508 5.49613C30.0618 4.8327 31.4758 4.5 33 4.5C33.7022 4.5 34.2829 4.74005 34.7714 5.22855C35.2599 5.71705 35.5 6.29776 35.5 7C35.5 7.15788 35.4803 7.31717 35.4399 7.47873C35.3946 7.65996 35.3429 7.82143 35.2858 7.9643L35.2828 7.97167L35.2801 7.97913C35.1437 8.35437 35.0158 8.73781 34.8967 9.12942C34.7736 9.53378 34.677 9.94663 34.6068 10.3678L34.5645 10.6216L34.7464 10.8036L39.2964 15.3536L39.4429 15.5H39.65H43.5V28.5876L38.1944 30.3248L37.9459 30.4062L37.871 30.6567L34.6277 41.5ZM11.5177 38.132L11.6185 38.5H12H16H16.5V38V34.5H27.5V38V38.5H28H32H32.3717L32.4788 38.1441L35.5043 28.0914L40.1596 26.5239L40.5 26.4092V26.05V19V18.5H40H38.2071L31.5014 11.7943C31.5091 11.2224 31.5489 10.6717 31.6205 10.142C31.7009 9.54664 31.8218 8.94178 31.9835 8.32725L32.2047 7.48693L31.367 7.718C30.3285 8.00448 29.4102 8.49898 28.6183 9.20083C27.9054 9.83278 27.3671 10.6016 27.0034 11.5H15C12.9341 11.5 11.1569 12.236 9.69645 13.6964C8.23598 15.1569 7.5 16.9341 7.5 19C7.5 22.3133 7.95652 25.5516 8.86963 28.7137C9.76897 31.8281 10.6517 34.9675 11.5177 38.132ZM33.0714 21.0714C32.7865 21.3564 32.4408 21.5 32 21.5C31.5592 21.5 31.2135 21.3564 30.9286 21.0714C30.6436 20.7865 30.5 20.4408 30.5 20C30.5 19.5593 30.6436 19.2135 30.9286 18.9286C31.2135 18.6436 31.5593 18.5 32 18.5C32.4408 18.5 32.7865 18.6436 33.0714 18.9286C33.3564 19.2135 33.5 19.5592 33.5 20C33.5 20.4408 33.3564 20.7865 33.0714 21.0714ZM25.5 14.5V17.5H16.5V14.5H25.5Z" fill="#2B59C3" stroke="white"/>
</svg>
