<svg width="26" height="26" viewBox="0 0 26 26" fill="none" xmlns="http://www.w3.org/2000/svg">
<path id="Vector" d="M8.57919 11.2104L17.4165 6.79171M17.4208 19.2104L8.59172 14.7959M25 5C25 7.20913 23.2092 9 21 9C18.7908 9 17 7.20913 17 5C17 2.79087 18.7908 1 21 1C23.2092 1 25 2.79087 25 5ZM9 13C9 15.2092 7.20913 17 5 17C2.79087 17 1 15.2092 1 13C1 10.7908 2.79087 9 5 9C7.20913 9 9 10.7908 9 13ZM25 21C25 23.2092 23.2092 25 21 25C18.7908 25 17 23.2092 17 21C17 18.7908 18.7908 17 21 17C23.2092 17 25 18.7908 25 21Z" stroke="black" stroke-width="2"/>
</svg>
