<svg width="33" height="32" viewBox="0 0 33 32" fill="none" xmlns="http://www.w3.org/2000/svg">
<g id="whatsapp 1">
<path id="Vector" d="M23.9666 8.42665C22.9891 7.44188 21.8257 6.66128 20.5439 6.13023C19.2621 5.59917 17.8874 5.32829 16.4999 5.33332C14.6451 5.33513 12.8232 5.82425 11.2169 6.75169C9.61051 7.67913 8.27603 9.01235 7.34704 10.6178C6.41805 12.2233 5.9272 14.0447 5.9236 15.8995C5.92001 17.7544 6.40383 19.5776 7.32659 21.1867L5.83325 26.6667L11.4333 25.2C12.9796 26.0603 14.7171 26.5188 16.4866 26.5333C19.2995 26.5335 21.9986 25.4224 23.9962 23.4421C25.9939 21.462 27.1286 18.7728 27.1533 15.96C27.1439 14.5564 26.8575 13.1685 26.3107 11.8757C25.7639 10.583 24.9673 9.41092 23.9666 8.42665ZM16.4999 24.7067C14.9235 24.7077 13.3759 24.284 12.0199 23.48L11.6999 23.28L8.37992 24.16L9.25992 20.92L9.04659 20.5867C7.91225 18.7556 7.48891 16.572 7.85675 14.4496C8.22459 12.3273 9.35807 10.4135 11.0425 9.07096C12.7269 7.72837 14.8451 7.0502 16.9961 7.16491C19.147 7.2796 21.1813 8.17921 22.7133 9.69332C24.3879 11.3309 25.3466 13.5647 25.3799 15.9067C25.3589 18.2479 24.4139 20.486 22.7509 22.1341C21.0879 23.7821 18.8413 24.7068 16.4999 24.7067ZM21.3133 18.12C21.0466 17.9867 19.7533 17.3467 19.5133 17.2667C19.2733 17.1867 19.0866 17.1333 18.9133 17.4C18.6525 17.7575 18.3719 18.1001 18.0733 18.4267C17.9266 18.6133 17.7666 18.6267 17.4999 18.4267C15.9795 17.8259 14.7129 16.7192 13.9133 15.2933C13.6333 14.8267 14.1799 14.8533 14.6866 13.8533C14.7241 13.7812 14.7435 13.7012 14.7435 13.62C14.7435 13.5388 14.7241 13.4588 14.6866 13.3867C14.6866 13.2533 14.0866 11.9467 13.8733 11.4267C13.6599 10.9067 13.4466 10.9867 13.2733 10.9733H12.7533C12.6185 10.9754 12.4858 11.0062 12.3639 11.0637C12.2421 11.1212 12.1339 11.204 12.0466 11.3067C11.7474 11.5976 11.5141 11.9492 11.3623 12.3379C11.2105 12.7266 11.1437 13.1433 11.1666 13.56C11.2502 14.5575 11.6258 15.5081 12.2466 16.2933C13.3829 17.9944 14.9401 19.3724 16.7666 20.2933C17.7246 20.8525 18.8379 21.0864 19.9399 20.96C20.3069 20.8872 20.6545 20.738 20.9599 20.522C21.2655 20.3061 21.5222 20.0283 21.7133 19.7067C21.8903 19.3141 21.9461 18.8777 21.8733 18.4533C21.7533 18.32 21.5799 18.2533 21.3133 18.12Z" fill="white"/>
</g>
</svg>
